<svg width="22" height="25" viewBox="0 0 22 25" fill="none" xmlns="http://www.w3.org/2000/svg">
<g clip-path="url(#clip0_395:94)">
<path d="M11.0047 6.69814C7.88147 6.69814 5.36228 9.10283 5.36228 12.0841C5.36228 15.0653 7.88147 17.47 11.0047 17.47C14.1279 17.47 16.6471 15.0653 16.6471 12.0841C16.6471 9.10283 14.1279 6.69814 11.0047 6.69814ZM11.0047 15.5856C8.98638 15.5856 7.33638 14.0153 7.33638 12.0841C7.33638 10.1528 8.98147 8.58252 11.0047 8.58252C13.0279 8.58252 14.673 10.1528 14.673 12.0841C14.673 14.0153 13.023 15.5856 11.0047 15.5856ZM18.194 6.47783C18.194 7.17627 17.6047 7.73408 16.8779 7.73408C16.1462 7.73408 15.5618 7.17158 15.5618 6.47783C15.5618 5.78408 16.1511 5.22158 16.8779 5.22158C17.6047 5.22158 18.194 5.78408 18.194 6.47783ZM21.931 7.75283C21.8475 6.07002 21.4449 4.57939 20.1533 3.35127C18.8667 2.12314 17.3051 1.73877 15.5422 1.65439C13.7252 1.55596 8.27924 1.55596 6.46228 1.65439C4.70424 1.73408 3.14263 2.11846 1.85112 3.34658C0.559598 4.57471 0.16183 6.06533 0.0734375 7.74814C-0.0296875 9.48252 -0.0296875 14.681 0.0734375 16.4153C0.15692 18.0981 0.559598 19.5888 1.85112 20.8169C3.14263 22.045 4.69933 22.4294 6.46228 22.5138C8.27924 22.6122 13.7252 22.6122 15.5422 22.5138C17.3051 22.4341 18.8667 22.0497 20.1533 20.8169C21.44 19.5888 21.8426 18.0981 21.931 16.4153C22.0342 14.681 22.0342 9.48721 21.931 7.75283ZM19.5837 18.2763C19.2007 19.195 18.4592 19.9028 17.4917 20.2731C16.0431 20.8216 12.6056 20.695 11.0047 20.695C9.40379 20.695 5.96138 20.8169 4.51763 20.2731C3.55513 19.9075 2.81362 19.1997 2.42567 18.2763C1.85112 16.8935 1.98371 13.6122 1.98371 12.0841C1.98371 10.556 1.85603 7.27002 2.42567 5.89189C2.80871 4.97314 3.55022 4.26533 4.51763 3.89502C5.96629 3.34658 9.40379 3.47314 11.0047 3.47314C12.6056 3.47314 16.048 3.35127 17.4917 3.89502C18.4542 4.26064 19.1958 4.96846 19.5837 5.89189C20.1583 7.27471 20.0257 10.556 20.0257 12.0841C20.0257 13.6122 20.1583 16.8981 19.5837 18.2763Z" fill="url(#paint0_linear_395:94)"/>
</g>
<defs>
<linearGradient id="paint0_linear_395:94" x1="-0.00390625" y1="12.0841" x2="22.0084" y2="12.0841" gradientUnits="userSpaceOnUse">
<stop stop-color="#D1AD3C"/>
<stop offset="1" stop-color="#D1AD3C"/>
</linearGradient>
<clipPath id="clip0_395:94">
<rect width="22" height="24" fill="white" transform="translate(0 0.0888672)"/>
</clipPath>
</defs>
</svg>
