<svg width="22" height="25" viewBox="0 0 22 25" fill="none" xmlns="http://www.w3.org/2000/svg">
<path d="M19.6429 1.58887H2.35714C1.0558 1.58887 0 2.59668 0 3.83887V20.3389C0 21.5811 1.0558 22.5889 2.35714 22.5889H19.6429C20.9442 22.5889 22 21.5811 22 20.3389V3.83887C22 2.59668 20.9442 1.58887 19.6429 1.58887ZM17.2415 9.03262C17.2513 9.16387 17.2513 9.2998 17.2513 9.43106C17.2513 13.4951 14.0103 18.1779 8.08795 18.1779C6.26116 18.1779 4.56696 17.6717 3.14286 16.7998C3.40313 16.8279 3.65357 16.8373 3.91875 16.8373C5.42634 16.8373 6.81116 16.3498 7.91607 15.5248C6.50179 15.4967 5.31339 14.6107 4.9058 13.392C5.40179 13.4623 5.84866 13.4623 6.35938 13.3357C4.88616 13.0498 3.78125 11.8123 3.78125 10.317V10.2795C4.20848 10.5092 4.70937 10.6498 5.23482 10.6686C4.79307 10.3881 4.43093 10.0076 4.18072 9.56097C3.93052 9.11439 3.80002 8.61562 3.80089 8.10918C3.80089 7.5373 3.95804 7.0123 4.23795 6.55762C5.82411 8.42324 8.2058 9.64199 10.8772 9.77324C10.4205 7.6873 12.0558 5.99512 14.0201 5.99512C14.9482 5.99512 15.783 6.36543 16.3723 6.96543C17.0991 6.83418 17.7964 6.57637 18.4152 6.2248C18.1746 6.9373 17.6688 7.5373 17.0009 7.91699C17.6491 7.85137 18.2777 7.67793 18.8571 7.43887C18.4201 8.05293 17.8701 8.59668 17.2415 9.03262Z" fill="url(#paint0_linear_395:92)"/>
<defs>
<linearGradient id="paint0_linear_395:92" x1="0" y1="12.0889" x2="22" y2="12.0889" gradientUnits="userSpaceOnUse">
<stop stop-color="#D1AD3C"/>
<stop offset="1" stop-color="#D1AD3C"/>
</linearGradient>
</defs>
</svg>
