<svg width="22" height="25" viewBox="0 0 22 25" fill="none" xmlns="http://www.w3.org/2000/svg">
<path d="M20.4286 1.58887H1.56652C0.702232 1.58887 0 2.26855 0 3.10293V21.0748C0 21.9092 0.702232 22.5889 1.56652 22.5889H20.4286C21.2929 22.5889 22 21.9092 22 21.0748V3.10293C22 2.26855 21.2929 1.58887 20.4286 1.58887ZM6.64911 19.5889H3.38839V9.56699H6.65402V19.5889H6.64911ZM5.01875 8.19824C3.97277 8.19824 3.12812 7.3873 3.12812 6.39355C3.12812 5.3998 3.97277 4.58887 5.01875 4.58887C6.05982 4.58887 6.90937 5.3998 6.90937 6.39355C6.90937 7.39199 6.06473 8.19824 5.01875 8.19824ZM18.8719 19.5889H15.6112V14.7139C15.6112 13.5514 15.5866 12.0561 13.917 12.0561C12.2179 12.0561 11.9576 13.3217 11.9576 14.6295V19.5889H8.69688V9.56699H11.825V10.9357H11.8692C12.3062 10.1482 13.3719 9.31855 14.958 9.31855C18.258 9.31855 18.8719 11.3951 18.8719 14.0951V19.5889Z" fill="url(#paint0_linear_395:96)"/>
<defs>
<linearGradient id="paint0_linear_395:96" x1="0" y1="12.0889" x2="22" y2="12.0889" gradientUnits="userSpaceOnUse">
<stop stop-color="#D1AD3C"/>
<stop offset="1" stop-color="#D1AD3C"/>
</linearGradient>
</defs>
</svg>
