<svg width="22" height="25" viewBox="0 0 22 25" fill="none" xmlns="http://www.w3.org/2000/svg">
<g clip-path="url(#clip0_395:90)">
<path d="M19.6429 1.58887H2.35714C1.73199 1.58887 1.13244 1.82592 0.690391 2.24788C0.248341 2.66983 0 3.24213 0 3.83887L0 20.3389C0 20.9356 0.248341 21.5079 0.690391 21.9299C1.13244 22.3518 1.73199 22.5889 2.35714 22.5889H9.0971V15.4493H6.00335V12.0889H9.0971V9.52762C9.0971 6.61434 10.9141 5.00512 13.697 5.00512C15.0297 5.00512 16.4234 5.23199 16.4234 5.23199V8.09137H14.8878C13.3748 8.09137 12.9029 8.98762 12.9029 9.90684V12.0889H16.2805L15.7403 15.4493H12.9029V22.5889H19.6429C20.268 22.5889 20.8676 22.3518 21.3096 21.9299C21.7517 21.5079 22 20.9356 22 20.3389V3.83887C22 3.24213 21.7517 2.66983 21.3096 2.24788C20.8676 1.82592 20.268 1.58887 19.6429 1.58887Z" fill="url(#paint0_linear_395:90)"/>
</g>
<defs>
<linearGradient id="paint0_linear_395:90" x1="0" y1="12.0889" x2="22" y2="12.0889" gradientUnits="userSpaceOnUse">
<stop stop-color="#D1AD3C"/>
<stop offset="1" stop-color="#D1AD3C"/>
</linearGradient>
<clipPath id="clip0_395:90">
<rect width="22" height="24" fill="white" transform="translate(0 0.0888672)"/>
</clipPath>
</defs>
</svg>
